DBRep_DrawableShape

CASCADE Topology V3, (c) Open Cascade
Locations 10
1
              0              -0              -1               0 
              0               1               0               0 
              1               0               0               0 
1
              1               0               0               0 
              0               1               0               0 
              0               0               1             -15 
1
             -0               0              -1               0 
              0               1               0               0 
              1               0              -0               0 
1
              1               0               0               0 
              0               1               0               0 
              0               0               1               0 
1
              0               0               1               0 
              0               1               0               0 
             -1               0               0               0 
2  2 1 3 1 4 1 5 1 0
1
              1               0               0               0 
              0               1               0               0 
              0               0               1               0 
1
              1               0               0             -34 
              0               1               0              17 
              0               0               1             -42 
2  7 1 8 1 0
2  5 -1 4 -1 3 -1 2 -1 0
Curve2ds 36
8 13.499999999999996 23.499999999999996
1 8 23.499999999999996 0 -1 
8 13.499999999999996 23.499999999999996
1 23.500000000000011 59.000000372529001 1 -2.2e-16 
1 4.4576260520484778 0 0 1 
1 25.000000000000004 0 0 1 
8 -37.325100277871066 -6.0246999114447934
1 21.674900094657943 -17.000000186264522 1 -0 
8 -37.325100277871066 -6.0246999114447934
1 47 21.674900094657936 -2.2e-16 -1 
8 -23.499999999999996 -13.499999999999996
1 11.999999739229679 23.499999999999996 0 1 
8 -23.499999999999996 -13.499999999999996
1 23.500000000000007 54.000000111758702 -1 2.2e-16 
8 -37.325100277871066 -6.0246999114447135
1 21.674900094657943 -17.000000186264522 1 -0 
8 -37.325100277871066 -6.0246999114447135
1 37 21.674900094657936 -2.2e-16 -1 
1 0 10 1 0 
2 9.3498001893158804 -1.8626452380000001e-07 0.25201599600056007 0.96772306873394609 0.96772306873394609 -0.25201599600056007 25.000000372529001
1 15.650200183213141 24.193076892589076 -0.25889912699115913 -0.96590436485358933 
1 -2.2e-16 10 1 0 
2 9.3498001893158804 19.999999925494173 1 0 0 -1 4.9999998882412902
1 6.2831853071795862 10 -1 0 
2 9.3498001893158804 -1.8626452380000001e-07 0 1 -1 0 20.000000111758698
1 -6.2831853071795862 10 1 0 
2 -10.650199922442818 -1.8626452136e-07 1 0 0 -1 5.0000002607703209
1 6.2831853071795862 0 -1 0 
2 9.3498001893158804 -1.8626452380000001e-07 0.25201599600056007 0.96772306873394609 -0.96772306873394609 0.25201599600056007 25.000000372529001
1 6.2831853071795862 0 0 1 
1 15.650200183213141 24.193076892589076 -0.25889912699115913 -0.96590436485358933 
1 6.2831853071795862 0 -1 0 
2 9.3498001893158804 19.999999925494173 1 0 -0 1 4.9999998882412902
1 6.2831853071795862 0 -1 0 
2 9.3498001893158804 -1.8626452380000001e-07 0 1 -1 0 20.000000111758698
1 6.2831853071795862 0 -1 0 
2 -10.650199922442818 -1.8626452136e-07 1 0 -0 1 5.0000002607703209
1 1.5707963267948966 0 0 1 
1 0 0 0 1 
1 0.26188229559194232 0 0 1 
1 6.0325296518835918 0 0 1 
1 3.0162648259417892 0 0 1 
1 -1.4454684897600547 0 0 1 
1 4.9630446544543814 0 0 1 
Curves 24
1 25.000000372529005 17 -18.499999999999989 -2.2e-16 0 1 
1 25.000000372529001 115 10 0 -1 0 
1 25.000000372529001 -3.06e-15 20 0 0 -1 
1 25.000000372529001 25 20 0 -1 0 
1 -12.325099905342064 17 4.9999999999999982 -1 0 -2.2e-16 
1 20.000000111758702 17 -18.499999999999993 2.2e-16 0 -1 
1 -12.325099905342062 17 -5.0000000000000027 -1 0 -2.2e-16 
2 0 0 10 0 0 -1 -0.25201599600056007 -0.96772306873394609 -0 -0.96772306873394609 0.25201599600056007 0 25.000000372529001
1 -6.3003999938972601 -24.193077078853602 10 0.25889912699115913 0.96590436485358933 0 
2 0 -20.000000111758698 10 0 0 -1 -1 0 0 0 1 0 4.9999998882412902
2 0 0 10 0 0 1 0 -1 0 1 0 -0 20.000000111758698
2 20.000000111758698 -2.45e-15 10 0 0 -1 -1 0 0 0 1 0 5.00000026077032
1 20.000000111758698 -2.45e-15 10 0 1 0 
2 0 0 20 0 0 1 -0.25201599600056007 -0.96772306873394609 0 0.96772306873394609 -0.25201599600056007 0 25.000000372529001
1 -6.3003999938972601 -24.193077078853602 20 0 0 -1 
1 -6.3003999938972601 -24.193077078853602 20 0.25889912699115913 0.96590436485358933 0 
2 0 -20.000000111758698 20 0 0 1 -1 0 0 0 -1 0 4.9999998882412902
2 0 0 20 0 0 1 0 -1 0 1 0 -0 20.000000111758698
2 20.000000111758698 -2.45e-15 20 0 0 1 -1 0 0 0 -1 0 5.00000026077032
1 20.000000111758698 -2.45e-15 20 0 1 0 
1 20.000000111758698 5.00000026077032 20 0 0 -1 
1 -4.8295217163197197 -18.7055045057371 20 0 0 -1 
1 4.9607835995639897 -19.3750001431908 20 0 0 -1 
1 19.375000050058599 -4.9607839633044 20 0 0 -1 
Polygon3D 0
PolygonOnTriangulations 0
Surfaces 10
1 25.000000372529001 25 20 1 0 0 0 -1 0 0 0 -1 
1 0 0 0 -0 1 0 0 0 1 1 0 -0 
1 9.3498001893158804 -1.8626452380000001e-07 10 0 0 1 -1 0 0 0 -1 0 
2 0 0 20 0 0 -1 -0.25201599600056007 -0.96772306873394609 -0 -0.96772306873394609 0.25201599600056007 0 25.000000372529001
1 9.3498001893158804 -1.8626452380000001e-07 20 0 0 1 -1 0 0 0 -1 0 
1 20.000000111758698 5.00000026077032 20 -1 0 0 0 1 0 0 0 -1 
1 -6.3003999938972601 -24.193077078853602 20 -0.96590436485358933 0.25889912699115913 0 0.25889912699115913 0.96590436485358933 0 0 0 -1 
2 0 -20.000000111758698 20 0 0 -1 -1 0 0 0 1 0 4.9999998882412902
2 0 0 20 0 0 -1 0 -1 0 -1 -0 -0 20.000000111758698
2 20.000000111758698 -2.45e-15 20 0 0 -1 -1 0 0 0 1 0 5.00000026077032
Triangulations 0

TShapes 63
Ve
0.000138492557922
25.000000372529 17 -4.99999999999999
0 0

0101101
*
Ve
0.000138492557921
25.000000372529 17 5.00000000000001
0 0

0101101
*
Ed
 0.000138492557921 1 1 0
1  1 0 13.5 23.5
2  1 1 6 13.5 23.5
2  2 2 9 13.5 23.5
0

0101000
+63 0 -62 0 *
Ve
1e-07
25.000000372529 -3e-15 10
0 0

0101101
*
Ed
 1e-07 1 1 0
1  2 0 98 115
4 C0 3 0 1 0
0

0101000
+63 10 -60 0 *
Ve
1e-07
25.000000372529 -3e-15 20
0 0

0101101
*
Ed
 1e-07 1 1 0
1  3 0 0 10
2  3 4 0 0 10
4 G1 1 0 4 0
2  4 1 0 0 10
0

0101000
+58 0 -60 0 *
Ed
 1e-07 1 1 0
1  4 0 8 25
4 C0 1 0 5 0
0

0101000
+62 10 -58 0 *
Wi

0101100
+61 0 -59 6 +57 6 +56 6 *
Fa
0  1e-07 1 6

0111000
+55 0 *
Ve
0.000138492557925
20.0000001117587 17 5
0 0

0101101
*
Ed
 0.000138492557921 1 1 0
1  5 0 -37.3251002778711 -32.3251000171008
2  5 5 6 -37.3251002778711 -32.3251000171008
2  6 2 9 -37.3251002778711 -32.3251000171008
0

0101000
+62 0 -53 0 *
Ve
0.000138492557924
20.0000001117587 17 -4.99999999999999
0 0

0101101
*
Ed
 0.000138492557921 1 1 0
1  6 0 -23.5 -13.5
2  7 6 6 -23.5 -13.5
2  8 2 9 -23.5 -13.5
0

0101000
+53 0 -51 0 *
Ed
 0.000138492557921 1 1 0
1  7 0 -37.3251002778711 -32.3251000171008
2  9 3 6 -37.3251002778711 -32.3251000171008
2  10 2 9 -37.3251002778711 -32.3251000171008
0

0101000
+63 0 -51 0 *
Wi

0101100
-61 0 -52 0 -50 0 +49 0 *
Fa
0  1e-07 2 9

0111000
+48 0 *
Ve
1e-07
-6.30039999389727 -24.1930770788536 10
0 0

0101101
*
Ed
 1e-07 1 1 0
1  8 0 4.45762605204848 6.28318530717959
2  11 4 0 4.45762605204848 6.28318530717959
4 C0 3 0 4 0
2  12 3 0 4.45762605204848 6.28318530717959
0

0101000
+60 0 -46 0 *
Ve
1e-07
-4.82952171631972 -18.7055045057371 10
0 0

0101101
*
Ed
 1e-07 1 1 0
1  9 0 -3e-15 5.68127940279916
4 C0 3 0 7 0
2  13 3 0 -3e-15 5.68127940279916
0

0101000
+46 0 -44 0 *
Ve
1e-07
4.96078359956399 -19.3750001431908 10
0 0

0101101
*
Ed
 1e-07 1 1 0
1  10 0 0.261882295591942 3.01626482594179
2  14 8 0 0.261882295591942 3.01626482594179
4 C0 3 0 8 0
2  15 3 0 0.261882295591942 3.01626482594179
0

0101000
+44 0 -42 0 *
Ve
1e-07
19.3750000500586 -4.9607839633044 10
0 0

0101101
*
Ed
 1e-07 1 1 0
1  11 0 0.250655655295994 1.3201406527252
2  16 9 0 0.250655655295994 1.3201406527252
4 C0 3 0 9 0
2  17 3 0 0.250655655295994 1.3201406527252
0

0101000
+42 0 -40 0 *
Ve
1e-07
20.0000001117587 5.00000026077032 10
0 0

0101101
*
Ed
 1e-07 1 1 0
1  12 0 4.83771681741953 7.85398163397448
2  18 10 0 4.83771681741953 7.85398163397448
4 C0 3 0 10 0
2  19 3 0 4.83771681741953 7.85398163397448
0

0101000
+40 0 -38 0 *
Ed
 1e-07 1 1 0
1  13 0 5.00000026077032 17
4 C0 3 0 6 0
0

0101000
+38 0 -51 10 *
Wi

0101100
-59 6 -45 6 -43 6 -41 6 -39 6 -37 6 -36 6 +49 0 *
Fa
0  1e-07 3 6

0111000
+35 0 *
Ve
1e-07
-6.30039999389726 -24.1930770788536 20
0 0

0101101
*
Ed
 1e-07 1 1 0
1  14 0 0 1.82555925513111
2  20 4 0 0 1.82555925513111
4 C0 5 0 4 0
2  21 5 0 0 1.82555925513111
0

0101000
+33 0 -58 0 *
Ed
 1e-07 1 1 0
1  15 0 0 10
2  22 4 0 0 10
4 C0 7 0 4 0
0

0101000
+33 0 -46 0 *
Wi

0101100
-32 0 +31 0 -45 0 -57 0 *
Fa
0  1e-07 4 0

0111000
+30 0 *
Ve
1e-07
-4.82952171631972 -18.7055045057371 20
0 0

0101101
*
Ed
 1e-07 1 1 0
1  16 0 0 5.68127940279916
4 C0 5 0 7 0
2  23 5 0 0 5.68127940279916
0

0101000
+33 0 -28 0 *
Ve
1e-07
4.96078359956399 -19.3750001431908 20
0 0

0101101
*
Ed
 1e-07 1 1 0
1  17 0 3.2669204812378 6.02130301158764
2  24 8 0 3.2669204812378 6.02130301158764
4 C0 5 0 8 0
2  25 5 0 3.2669204812378 6.02130301158764
0

0101000
+26 0 -28 0 *
Ve
1e-07
19.3750000500586 -4.9607839633044 20
0 0

0101101
*
Ed
 1e-07 1 1 0
1  18 0 0.250655655295994 1.3201406527252
2  26 9 0 0.250655655295994 1.3201406527252
4 C0 5 0 9 0
2  27 5 0 0.250655655295994 1.3201406527252
0

0101000
+26 0 -24 0 *
Ve
1e-07
20.0000001117587 5.00000026077032 20
0 0

0101101
*
Ed
 1e-07 1 1 0
1  19 0 4.71238898038469 7.72865379693964
2  28 10 0 4.71238898038469 7.72865379693964
4 C0 5 0 10 0
2  29 5 0 4.71238898038469 7.72865379693964
0

0101000
+22 0 -24 0 *
Ed
 1e-07 1 1 0
1  20 0 5.00000026077032 17
4 C0 5 0 6 0
0

0101000
+22 0 -53 10 *
Wi

0101100
+52 0 -56 6 +32 6 -27 6 +25 6 -23 6 +21 6 -20 6 *
Fa
0  1e-07 5 6

0111000
+19 0 *
Ed
 1e-07 1 1 0
1  21 0 0 10
2  30 10 0 0 10
4 C0 6 0 10 0
2  31 6 0 0 10
0

0101000
+22 0 -38 0 *
Wi

0101100
+50 0 +20 6 -17 6 -36 6 *
Fa
0  1e-07 6 6

0111000
+16 0 *
Ed
 1e-07 1 1 0
1  22 0 0 10
2  32 8 0 0 10
4 G1 8 0 7 0
0

0101000
+28 0 -44 0 *
Wi

0101100
+27 0 +14 0 -43 0 -31 0 *
Fa
0  1e-07 7 0

0111000
+13 0 *
Ed
 1e-07 1 1 0
1  23 0 0 10
2  33 9 0 0 10
2  34 8 0 0 10
4 C0 9 0 8 0
0

0101000
+26 0 -42 0 *
Wi

0101100
-25 0 +11 0 -41 0 -14 0 *
Fa
0  1e-07 8 0

0111000
+10 0 *
Ed
 1e-07 1 1 0
1  24 0 0 10
2  35 10 0 0 10
2  36 9 0 0 10
4 C0 10 0 9 0
0

0101000
+24 0 -40 0 *
Wi

0101100
+11 0 +39 0 -8 0 -23 0 *
Fa
0  1e-07 9 0

0111000
+7 0 *
Wi

0101100
-21 0 +17 0 -37 0 -8 0 *
Fa
0  1e-07 10 0

0111000
+5 0 *
Sh

0101100
+54 0 +47 0 -34 0 +29 6 +18 0 +15 0 +12 6 +9 6 -6 6 +4 6 
*
So

0100000
+3 0 *
Co

1100000
+2 0 *

+1 1 